<svg xmlns="http://www.w3.org/2000/svg" xmlns:xlink="http://www.w3.org/1999/xlink" width="48" zoomAndPan="magnify" viewBox="0 0 36 36.000001" height="48" preserveAspectRatio="xMidYMid meet" version="1.0"><path fill="#1b94fd" d="M 31.238281 14.089844 C 31.175781 12.746094 30.761719 11.570312 30.003906 10.589844 C 29.34375 9.730469 28.417969 9.023438 27.25 8.480469 C 26.519531 8.148438 25.765625 7.890625 24.984375 7.707031 C 25.402344 7.046875 25.832031 6.386719 26.277344 5.734375 C 26.40625 5.546875 26.496094 5.339844 26.539062 5.117188 C 26.585938 4.894531 26.589844 4.671875 26.546875 4.449219 C 26.503906 4.226562 26.421875 4.019531 26.296875 3.828125 C 26.171875 3.640625 26.011719 3.480469 25.824219 3.355469 C 25.640625 3.230469 25.4375 3.144531 25.214844 3.097656 C 24.996094 3.054688 24.777344 3.050781 24.558594 3.09375 C 24.335938 3.136719 24.132812 3.21875 23.945312 3.339844 C 23.757812 3.460938 23.597656 3.617188 23.472656 3.800781 C 22.707031 4.917969 21.976562 6.058594 21.285156 7.214844 C 20.921875 7.199219 20.578125 7.191406 20.257812 7.191406 C 19.871094 7.191406 19.476562 7.203125 19.09375 7.21875 C 18.316406 7.25 15.929688 7.527344 13.648438 7.957031 C 9.085938 8.808594 8.390625 9.574219 8.160156 9.824219 C 7.894531 10.117188 7.847656 10.402344 7.851562 10.59375 C 7.863281 11.257812 8.527344 12.507812 9.4375 12.507812 C 9.445312 12.507812 9.457031 12.507812 9.464844 12.507812 C 9.628906 12.507812 9.832031 12.445312 10.394531 12.164062 C 12.488281 11.136719 16.789062 10.285156 19.351562 10.15625 L 19.382812 10.160156 L 19.417969 10.160156 C 19.488281 10.15625 19.558594 10.15625 19.632812 10.15625 C 19.4375 10.53125 19.242188 10.90625 19.054688 11.28125 C 17.421875 14.539062 16.078125 17.910156 15.023438 21.398438 C 13.550781 21.960938 11.964844 22.546875 10.261719 23.152344 L 9.460938 23.4375 C 8.792969 23.761719 7.015625 23.976562 6.460938 24.015625 L 6.335938 24.015625 C 6.257812 24.015625 6.179688 24.011719 6.105469 24.003906 C 5.9375 23.710938 5.660156 23.644531 5.449219 23.644531 L 5.402344 23.644531 C 4.828125 23.695312 4.398438 24.269531 4.398438 24.753906 L 4.398438 24.78125 C 4.46875 26.132812 5.390625 26.972656 6.8125 26.972656 C 6.875 26.972656 6.941406 26.972656 7.011719 26.96875 C 8.0625 26.921875 10.804688 26.277344 13.988281 25.28125 C 13.664062 26.691406 13.386719 28.148438 13.152344 29.636719 C 13.113281 29.863281 13.125 30.085938 13.179688 30.308594 C 13.234375 30.53125 13.328125 30.734375 13.464844 30.914062 C 13.597656 31.097656 13.765625 31.25 13.960938 31.363281 C 14.15625 31.480469 14.367188 31.554688 14.59375 31.585938 C 14.816406 31.617188 15.03125 31.605469 15.246094 31.546875 C 15.460938 31.492188 15.660156 31.398438 15.835938 31.265625 C 16.015625 31.132812 16.160156 30.972656 16.277344 30.785156 C 16.390625 30.59375 16.46875 30.390625 16.503906 30.171875 C 16.542969 29.925781 16.578125 29.695312 16.617188 29.484375 C 16.828125 28.257812 17.0625 27.121094 17.300781 26.082031 C 17.464844 25.378906 17.640625 24.675781 17.832031 23.976562 C 21.9375 22.460938 27.253906 20.105469 29.777344 17.363281 C 30.792969 16.257812 31.285156 15.15625 31.238281 14.089844 Z M 25.257812 16.792969 C 23.730469 17.683594 21.6875 18.664062 19.148438 19.742188 C 19.203125 19.582031 19.257812 19.425781 19.316406 19.269531 C 19.507812 18.730469 19.714844 18.1875 19.921875 17.660156 C 20.015625 17.417969 20.113281 17.179688 20.207031 16.941406 C 20.257812 16.824219 20.304688 16.707031 20.355469 16.589844 L 20.4375 16.390625 L 20.457031 16.339844 C 20.890625 15.332031 21.316406 14.402344 21.757812 13.5 C 22.230469 12.53125 22.734375 11.566406 23.265625 10.617188 C 24.171875 10.84375 25.050781 11.148438 25.902344 11.535156 C 27.730469 12.371094 28.476562 13.203125 28.554688 13.660156 C 28.613281 13.992188 28.410156 14.964844 25.257812 16.792969 Z M 25.257812 16.792969 " fill-opacity="1" fill-rule="nonzero"/></svg>