<svg id="Layer_1" data-name="Layer 1" xmlns="http://www.w3.org/2000/svg" viewBox="0 0 2000 2000"><defs><style>.cls-1{fill:#231c5f;}.cls-2{fill:#1b94fd;}</style></defs><path class="cls-1" d="M715.75,1125.48V1099H729.3q5.24,0,7.81,1.92a6,6,0,0,1,2.57,5,6,6,0,0,1-1.08,3.58,7.4,7.4,0,0,1-3,2.43,11.14,11.14,0,0,1-4.64.88l.76-1.81a12.84,12.84,0,0,1,4.89.85,7.3,7.3,0,0,1,3.23,2.46,6.54,6.54,0,0,1,1.16,3.92,6.14,6.14,0,0,1-2.79,5.36q-2.77,1.9-8.12,1.91Zm7.42-5.41h6.29a5.27,5.27,0,0,0,2.93-.67,2.55,2.55,0,0,0,0-4.05,5.36,5.36,0,0,0-2.93-.66h-6.82v-5.19h5.68a5.08,5.08,0,0,0,2.84-.64,2.19,2.19,0,0,0,1-1.93,2.15,2.15,0,0,0-1-1.92,5.27,5.27,0,0,0-2.84-.62h-5.15Z"/><path class="cls-1" d="M762.78,1126a16.41,16.41,0,0,1-5.87-1,14,14,0,0,1-4.68-2.9,13.4,13.4,0,0,1-3.08-4.37,14.25,14.25,0,0,1,0-11,13.33,13.33,0,0,1,3.08-4.38,14,14,0,0,1,4.68-2.89,17.3,17.3,0,0,1,11.76,0,13.65,13.65,0,0,1,7.73,7.27,13.33,13.33,0,0,1,1.11,5.49,13.26,13.26,0,0,1-4.2,9.88,13.87,13.87,0,0,1-4.64,2.88A16.37,16.37,0,0,1,762.78,1126Zm0-6.21a7.49,7.49,0,0,0,2.82-.53,6.54,6.54,0,0,0,2.28-1.53,7.31,7.31,0,0,0,1.51-2.41,9.1,9.1,0,0,0,0-6.23,7.38,7.38,0,0,0-1.51-2.38,6.71,6.71,0,0,0-2.28-1.54,7.77,7.77,0,0,0-5.64,0,6.58,6.58,0,0,0-2.27,1.54,7.24,7.24,0,0,0-1.52,2.38,9.1,9.1,0,0,0,0,6.23,7.17,7.17,0,0,0,1.52,2.41,6.42,6.42,0,0,0,2.27,1.53A7.49,7.49,0,0,0,762.78,1119.8Z"/><path class="cls-1" d="M799.36,1126a16.45,16.45,0,0,1-5.87-1,13.89,13.89,0,0,1-4.67-2.9,13.28,13.28,0,0,1-3.09-4.37,14.25,14.25,0,0,1,0-11,13.21,13.21,0,0,1,3.09-4.38,13.87,13.87,0,0,1,4.67-2.89,17.3,17.3,0,0,1,11.76,0,13.65,13.65,0,0,1,7.73,7.27,13.33,13.33,0,0,1,1.11,5.49,13.26,13.26,0,0,1-4.2,9.88,13.87,13.87,0,0,1-4.64,2.88A16.37,16.37,0,0,1,799.36,1126Zm0-6.21a7.49,7.49,0,0,0,2.82-.53,6.54,6.54,0,0,0,2.28-1.53,7.31,7.31,0,0,0,1.51-2.41,9.1,9.1,0,0,0,0-6.23,7.38,7.38,0,0,0-1.51-2.38,6.71,6.71,0,0,0-2.28-1.54,7.77,7.77,0,0,0-5.64,0,6.58,6.58,0,0,0-2.27,1.54,7.41,7.41,0,0,0-1.52,2.38,9.25,9.25,0,0,0,0,6.23,7.33,7.33,0,0,0,1.52,2.41,6.42,6.42,0,0,0,2.27,1.53A7.49,7.49,0,0,0,799.36,1119.8Z"/><path class="cls-1" d="M822.58,1125.48V1099H830v26.51Zm6.7-5.87-.42-8.41,11.4-12.23h8.26l-11.36,12.31-4.17,4.36Zm11.09,5.87-8.63-10.94,4.89-5.23,12.45,16.17Z"/><path class="cls-1" d="M880.48,1126a24.06,24.06,0,0,1-6.27-.81,16.33,16.33,0,0,1-4.9-2.1l2.46-5.53a17.3,17.3,0,0,0,4.11,1.87,15.3,15.3,0,0,0,4.64.74,9.28,9.28,0,0,0,2.49-.28,3.07,3.07,0,0,0,1.39-.76,1.6,1.6,0,0,0,.43-1.12,1.64,1.64,0,0,0-.83-1.44,7.82,7.82,0,0,0-2.16-.87c-.88-.23-1.86-.45-2.93-.68a31.33,31.33,0,0,1-3.22-.87,13,13,0,0,1-2.94-1.38,6.91,6.91,0,0,1-2.16-2.24,6.74,6.74,0,0,1-.83-3.5,7.56,7.56,0,0,1,1.31-4.32,9,9,0,0,1,3.92-3.1,15.75,15.75,0,0,1,6.51-1.18,22.62,22.62,0,0,1,5.13.59,16.2,16.2,0,0,1,4.49,1.72l-2.31,5.57a17.84,17.84,0,0,0-3.75-1.53,13.62,13.62,0,0,0-3.6-.52,7.8,7.8,0,0,0-2.5.33,2.85,2.85,0,0,0-1.36.85,1.9,1.9,0,0,0-.42,1.21A1.55,1.55,0,0,0,878,1108a7.37,7.37,0,0,0,2.16.84c.89.21,1.88.43,3,.66s2.15.51,3.22.85a12.49,12.49,0,0,1,2.93,1.36,6.56,6.56,0,0,1,2.14,2.24,6.66,6.66,0,0,1,.82,3.46,7.51,7.51,0,0,1-1.31,4.26,9,9,0,0,1-3.9,3.13A15.93,15.93,0,0,1,880.48,1126Z"/><path class="cls-1" d="M900.21,1125.48V1099h6.17l11,18H914.1l10.68-18H931l.07,26.51h-6.89l-.08-16h1.18l-8,13.41h-3.33l-8.22-13.41h1.44v16Z"/><path class="cls-1" d="M937.7,1125.48,949.4,1099h7.38l11.74,26.51h-7.8l-9.16-22.83h3l-9.16,22.83Zm6.4-5.15,1.93-5.53h13l1.93,5.53Z"/><path class="cls-1" d="M975.19,1125.48V1099H987.3a15.32,15.32,0,0,1,6.27,1.18,9.1,9.1,0,0,1,4.07,3.39,9.38,9.38,0,0,1,1.44,5.24,8.8,8.8,0,0,1-5.51,8.5,15.49,15.49,0,0,1-6.27,1.16h-7.95l3.34-3.15v10.19Zm7.5-9.39-3.34-3.45h7.5a5.15,5.15,0,0,0,3.5-1,3.6,3.6,0,0,0,1.16-2.84,3.64,3.64,0,0,0-1.16-2.88,5.15,5.15,0,0,0-3.5-1h-7.5l3.34-3.45Zm8.89,9.39-6.58-9.65h8l6.62,9.65Z"/><path class="cls-1" d="M1013,1125.48v-20.56h-8.14v-6h23.74v6h-8.1v20.56Z"/><path class="cls-1" d="M1043.39,1119.69h13.86v5.79H1036V1099h20.79v5.8h-13.37Zm-.53-10.45h12.31v5.6h-12.31Z"/><path class="cls-1" d="M1066,1125.48V1099h12.12a15.3,15.3,0,0,1,6.26,1.18,9.13,9.13,0,0,1,4.08,3.39,9.45,9.45,0,0,1,1.43,5.24,8.76,8.76,0,0,1-5.51,8.5,15.48,15.48,0,0,1-6.26,1.16h-8l3.34-3.15v10.19Zm7.5-9.39-3.34-3.45h7.5a5.2,5.2,0,0,0,3.51-1,3.63,3.63,0,0,0,1.15-2.84,3.67,3.67,0,0,0-1.15-2.88,5.2,5.2,0,0,0-3.51-1h-7.5l3.34-3.45Zm8.9,9.39-6.59-9.65h8l6.62,9.65Z"/><path class="cls-1" d="M1097.39,1131.43l2.84-9.85,1,4.09a4.37,4.37,0,0,1-3.1-1.12,3.87,3.87,0,0,1-1.21-3,4,4,0,0,1,1.23-3.1,4.36,4.36,0,0,1,3.08-1.14,4.28,4.28,0,0,1,3.07,1.16,4.05,4.05,0,0,1,1.21,3.08,7.45,7.45,0,0,1-.07,1.06,7.33,7.33,0,0,1-.34,1.29c-.18.51-.46,1.17-.84,2l-2.38,5.53Z"/><path class="cls-1" d="M1142.6,1126a16.53,16.53,0,0,1-5.83-1,13.21,13.21,0,0,1-7.68-7.23,14.55,14.55,0,0,1,0-11.1,13.08,13.08,0,0,1,3.06-4.37,13.65,13.65,0,0,1,4.68-2.86,16.89,16.89,0,0,1,5.93-1,17.1,17.1,0,0,1,6.7,1.25,12.48,12.48,0,0,1,4.88,3.6l-4.77,4.32a9.52,9.52,0,0,0-2.93-2.22,8.19,8.19,0,0,0-3.5-.74,8.78,8.78,0,0,0-3.11.53,6.7,6.7,0,0,0-2.39,1.54,7.27,7.27,0,0,0-1.53,2.38,8.39,8.39,0,0,0-.55,3.13,8.2,8.2,0,0,0,.55,3.06,7.2,7.2,0,0,0,1.53,2.41,6.73,6.73,0,0,0,2.37,1.55,8.12,8.12,0,0,0,3,.55,9.83,9.83,0,0,0,3.26-.55,10.52,10.52,0,0,0,3.21-1.87l4.21,5.26a17.13,17.13,0,0,1-5.27,2.5A20.93,20.93,0,0,1,1142.6,1126Zm4.51-4.35v-10h6.63v11Z"/><path class="cls-1" d="M1163.05,1125.48V1099h12.12a15.35,15.35,0,0,1,6.27,1.18,9.15,9.15,0,0,1,4.07,3.39,9.38,9.38,0,0,1,1.44,5.24,8.8,8.8,0,0,1-5.51,8.5,15.53,15.53,0,0,1-6.27,1.16h-8l3.33-3.15v10.19Zm7.5-9.39-3.33-3.45h7.5a5.17,5.17,0,0,0,3.5-1,3.6,3.6,0,0,0,1.16-2.84,3.64,3.64,0,0,0-1.16-2.88,5.17,5.17,0,0,0-3.5-1h-7.5l3.33-3.45Zm8.9,9.39-6.59-9.65h8l6.63,9.65Z"/><path class="cls-1" d="M1209,1126a16.41,16.41,0,0,1-5.87-1,14,14,0,0,1-4.68-2.9,13.61,13.61,0,0,1,0-19.73,14,14,0,0,1,4.68-2.89,17.3,17.3,0,0,1,11.76,0,13.83,13.83,0,0,1,4.64,2.89,13.63,13.63,0,0,1,3.08,4.38,13.18,13.18,0,0,1,1.12,5.49,13.36,13.36,0,0,1-4.2,9.88,14,14,0,0,1-4.64,2.88A16.41,16.41,0,0,1,1209,1126Zm0-6.21a7.49,7.49,0,0,0,2.82-.53,6.42,6.42,0,0,0,2.27-1.53,7.17,7.17,0,0,0,1.52-2.41,9.1,9.1,0,0,0,0-6.23,7.24,7.24,0,0,0-1.52-2.38,6.58,6.58,0,0,0-2.27-1.54,7.77,7.77,0,0,0-5.64,0,6.71,6.71,0,0,0-2.28,1.54,7.38,7.38,0,0,0-1.51,2.38,9.1,9.1,0,0,0,0,6.23,7.31,7.31,0,0,0,1.51,2.41,6.54,6.54,0,0,0,2.28,1.53A7.49,7.49,0,0,0,1209,1119.8Z"/><path class="cls-1" d="M1237.85,1125.48l-8.6-26.51H1237l7.24,23h-3.9l7.61-23h6.89l7.2,23h-3.75l7.46-23h7.15l-8.59,26.51h-8l-6.14-19.5h2.16l-6.4,19.5Z"/><path class="cls-1" d="M1303.74,1125.48h-7.5V1099H1317v5.8h-13.29Zm-.53-14.88h12.23v5.79h-12.23Z"/><path class="cls-1" d="M1320.89,1125.48l11.7-26.51H1340l11.74,26.51h-7.8l-9.17-22.83h3l-9.17,22.83Zm6.4-5.15,1.93-5.53h13l1.93,5.53Z"/><path class="cls-1" d="M1367.7,1126a24.06,24.06,0,0,1-6.27-.81,16.33,16.33,0,0,1-4.9-2.1l2.46-5.53a17.3,17.3,0,0,0,4.11,1.87,15.3,15.3,0,0,0,4.64.74,9.28,9.28,0,0,0,2.49-.28,3.07,3.07,0,0,0,1.39-.76,1.6,1.6,0,0,0,.43-1.12,1.64,1.64,0,0,0-.83-1.44,7.82,7.82,0,0,0-2.16-.87c-.88-.23-1.86-.45-2.93-.68a31.33,31.33,0,0,1-3.22-.87,13,13,0,0,1-2.94-1.38,6.91,6.91,0,0,1-2.16-2.24,6.74,6.74,0,0,1-.83-3.5,7.56,7.56,0,0,1,1.31-4.32,9,9,0,0,1,3.92-3.1,15.75,15.75,0,0,1,6.51-1.18,22.62,22.62,0,0,1,5.13.59,16.2,16.2,0,0,1,4.49,1.72l-2.31,5.57a17.84,17.84,0,0,0-3.75-1.53,13.62,13.62,0,0,0-3.6-.52,7.8,7.8,0,0,0-2.5.33,2.85,2.85,0,0,0-1.36.85,1.9,1.9,0,0,0-.42,1.21,1.55,1.55,0,0,0,.82,1.38,7.37,7.37,0,0,0,2.16.84c.89.21,1.88.43,2.95.66s2.14.51,3.22.85a12.49,12.49,0,0,1,2.93,1.36,6.56,6.56,0,0,1,2.14,2.24,6.66,6.66,0,0,1,.82,3.46,7.51,7.51,0,0,1-1.31,4.26,9,9,0,0,1-3.9,3.13A15.93,15.93,0,0,1,1367.7,1126Z"/><path class="cls-1" d="M1392.69,1125.48v-20.56h-8.14v-6h23.74v6h-8.1v20.56Z"/><path class="cls-1" d="M1423.06,1119.69h13.86v5.79h-21.28V1099h20.79v5.8h-13.37Zm-.53-10.45h12.31v5.6h-12.31Z"/><path class="cls-1" d="M1445.63,1125.48V1099h12.12a15.38,15.38,0,0,1,6.27,1.18,9.15,9.15,0,0,1,4.07,3.39,9.38,9.38,0,0,1,1.44,5.24,8.8,8.8,0,0,1-5.51,8.5,15.56,15.56,0,0,1-6.27,1.16h-8l3.33-3.15v10.19Zm7.5-9.39-3.33-3.45h7.5a5.17,5.17,0,0,0,3.5-1,3.59,3.59,0,0,0,1.15-2.84,3.64,3.64,0,0,0-1.15-2.88,5.17,5.17,0,0,0-3.5-1h-7.5l3.33-3.45Zm8.9,9.39-6.59-9.65h8l6.63,9.65Z"/><path class="cls-1" d="M846.76,1070.53V889.83h41.82v180.7Z"/><path class="cls-1" d="M984.61,1070.53l-78-180.7h45.17L1020,1049.88H993.39l69.18-160.05h41.56l-78.22,180.7Z"/><path class="cls-1" d="M1160.66,1037H1259v33.56H1119.1V889.83h136.55v33.56h-95Zm-3.1-74.34h87v32.52h-87Z"/><path class="cls-1" d="M1292.3,1070.53V889.83h34.59l106.62,130.1h-16.78V889.83H1458v180.7H1423.7l-106.87-130.1h16.78v130.1Z"/><path class="cls-2" d="M820.75,964.83c-.69-14.55-5.18-27.3-13.37-37.91-7.17-9.3-17.22-17-29.86-22.85A132.5,132.5,0,0,0,753,895.7c4.52-7.17,9.2-14.32,14-21.39a18.48,18.48,0,0,0-4.92-25.78h0a18.44,18.44,0,0,0-25.48,4.86q-12.48,18.17-23.72,37c-3.92-.17-7.66-.24-11.14-.24-4.19,0-8.44.1-12.58.29-8.43.33-34.29,3.35-59,8-49.43,9.26-57,17.53-59.46,20.25a11.6,11.6,0,0,0-3.35,8.31c.11,7.2,7.32,20.75,17.17,20.75h.31c1.78,0,4-.67,10.06-3.72,22.69-11.13,69.3-20.37,97.07-21.73l.35,0h.35c.77,0,1.55,0,2.33,0q-3.19,6.07-6.27,12.19A688.44,688.44,0,0,0,645.05,1044q-23.92,9.18-51.57,19l-8.69,3.11c-7.26,3.5-26.51,5.81-32.5,6.24l-1.37,0a19.37,19.37,0,0,1-2.51-.13,7.74,7.74,0,0,0-7.09-3.88h-.25l-.25,0c-6.23.51-10.88,6.76-10.88,12v.32c.76,14.63,10.77,23.72,26.13,23.72h0c.69,0,1.4,0,2.12,0,11.41-.48,41.14-7.47,75.63-18.26-3.51,15.28-6.54,31.06-9.08,47.22a18.38,18.38,0,0,0,15.67,21h0a18.4,18.4,0,0,0,20.67-15.34q.64-4,1.23-7.43c2.29-13.31,4.83-25.63,7.44-36.87q2.65-11.43,5.73-22.81c44.47-16.42,102.08-41.92,129.43-71.67C815.93,988.35,821.25,976.42,820.75,964.83Zm-64.81,29.32c-16.55,9.62-38.68,20.28-66.2,31.93q.9-2.58,1.83-5.13c2.09-5.81,4.3-11.68,6.56-17.43,1-2.59,2.07-5.2,3.11-7.76l1.58-3.83.91-2.18.22-.52c4.7-10.94,9.3-21,14.08-30.79,5.12-10.49,10.59-20.94,16.32-31.25a168,168,0,0,1,28.6,10c19.81,9.07,27.86,18.07,28.72,23C792.31,963.79,790.09,974.32,755.94,994.15Z"/></svg>