<svg id="Layer_1" data-name="Layer 1" xmlns="http://www.w3.org/2000/svg" viewBox="0 0 2000 2000"><defs><style>.cls-1{fill:#1b94fd;}</style></defs><path class="cls-1" d="M1270.4,934.59c-1.28-27.06-9.63-50.77-24.86-70.5-13.34-17.3-32-31.6-55.54-42.5A247.14,247.14,0,0,0,1144.36,806q12.6-20,26.08-39.79a34.36,34.36,0,0,0-9.13-47.94h0a34.33,34.33,0,0,0-47.41,9q-23.19,33.81-44.1,68.81c-7.29-.32-14.25-.45-20.72-.45-7.79,0-15.7.19-23.4.54-15.68.61-63.77,6.23-109.75,14.84-91.93,17.22-106,32.6-110.58,37.66-5.36,5.88-6.36,11.61-6.23,15.46.2,13.39,13.61,38.59,31.93,38.59.19,0,.37,0,.58,0,3.31,0,7.42-1.24,18.71-6.92,42.2-20.7,128.88-37.88,180.53-40.41l.65.05h.65c1.44-.06,2.89-.06,4.34-.08q-5.94,11.29-11.66,22.67a1279.92,1279.92,0,0,0-81.22,203.86q-44.5,17.07-95.92,35.36l-16.16,5.78c-13.5,6.51-49.3,10.81-60.44,11.61l-2.55,0a36.24,36.24,0,0,1-4.67-.24c-3.38-5.89-8.93-7.22-13.19-7.22h-.46l-.47,0c-11.58,1-20.23,12.58-20.23,22.34v.3l0,.29c1.41,27.21,20,44.12,48.6,44.12h0c1.29,0,2.61,0,4-.09,21.22-.9,76.51-13.9,140.66-34-6.53,28.4-12.18,57.76-16.9,87.82A34.19,34.19,0,0,0,935,1287.22h0a34.23,34.23,0,0,0,38.43-28.54q1.18-7.41,2.29-13.81c4.26-24.75,9-47.67,13.84-68.57q4.93-21.25,10.66-42.43c82.71-30.53,189.85-78,240.72-133.29C1261.44,978.34,1271.33,956.15,1270.4,934.59Zm-120.54,54.53c-30.78,17.89-71.93,37.72-123.12,59.39q1.68-4.8,3.41-9.54c3.88-10.81,8-21.73,12.2-32.42,1.89-4.82,3.85-9.67,5.78-14.43,1-2.36,1.95-4.75,2.94-7.13l1.69-4,.41-1c8.74-20.34,17.3-39.09,26.19-57.26,9.52-19.51,19.69-39,30.35-58.12a312,312,0,0,1,53.19,18.54c36.85,16.87,51.82,33.61,53.42,42.81C1217.51,932.66,1213.38,952.24,1149.86,989.12Z"/></svg>